<?xml version="1.0" encoding="iso-8859-1"?>
<!-- Uploaded to: SVG Repo, www.svgrepo.com, Generator: SVG Repo Mixer Tools -->
<svg height="800px" width="800px" version="1.1" id="Layer_1" xmlns="http://www.w3.org/2000/svg" xmlns:xlink="http://www.w3.org/1999/xlink" 
	 viewBox="0 0 512.002 512.002" xml:space="preserve">
<g>
	<path style="fill:#CEE8FA;" d="M345.602,189.486l-23.087-23.087c-12.187-12.187-12.187-31.945,0-44.132l76.736-76.736
		c12.187-12.187,31.945-12.187,44.132,0l23.087,23.087c12.187,12.187,12.187,31.945,0,44.132l-76.736,76.737
		C377.547,201.673,357.789,201.673,345.602,189.486z"/>
	<path style="fill:#CEE8FA;" d="M68.616,466.471l-23.087-23.087c-12.187-12.187-12.187-31.945,0-44.132l76.736-76.736
		c12.187-12.187,31.945-12.187,44.132,0l23.087,23.087c12.187,12.187,12.187,31.945,0,44.132l-76.737,76.736
		C100.561,478.658,80.803,478.658,68.616,466.471z"/>
	<path style="fill:#CEE8FA;" d="M322.514,345.602l23.087-23.087c12.187-12.187,31.945-12.187,44.132,0l76.737,76.736
		c12.187,12.187,12.187,31.945,0,44.132l-23.087,23.087c-12.187,12.187-31.945,12.187-44.132,0l-76.736-76.736
		C310.327,377.547,310.327,357.789,322.514,345.602z"/>
</g>
<path style="fill:#2D527C;" d="M421.317,490.734c-12.374,0-24.008-4.819-32.759-13.569l-76.736-76.738
	c-18.062-18.062-18.062-47.453,0-65.518l23.088-23.088c8.75-8.75,20.383-13.569,32.759-13.569c12.376,0,24.009,4.819,32.759,13.57
	l76.736,76.736c8.75,8.751,13.57,20.384,13.57,32.76c0,12.374-4.821,24.008-13.57,32.759l-23.087,23.087
	C445.326,485.915,433.692,490.734,421.317,490.734z M367.668,328.496c-4.296,0-8.335,1.672-11.373,4.711l-23.088,23.088
	c-6.271,6.271-6.271,16.475,0,22.746l76.737,76.738c3.038,3.038,7.077,4.71,11.373,4.71c4.298,0,8.337-1.672,11.373-4.712
	l23.087-23.087c3.04-3.038,4.712-7.077,4.712-11.373c0-4.296-1.672-8.335-4.712-11.373l-76.736-76.736
	C376.002,330.169,371.964,328.496,367.668,328.496z"/>
<path style="fill:#CEE8FA;" d="M45.529,68.616l23.087-23.087c12.187-12.187,31.945-12.187,44.132,0l76.736,76.736
	c12.187,12.187,12.187,31.945,0,44.132l-23.087,23.087c-12.187,12.187-31.945,12.187-44.132,0l-76.737-76.736
	C33.342,100.561,33.342,80.803,45.529,68.616z"/>
<path style="fill:#2D527C;" d="M475.852,124.753l1.311-1.311c8.75-8.751,13.57-20.384,13.57-32.76
	c0-12.374-4.821-24.008-13.57-32.759l-23.087-23.088c-8.751-8.75-20.384-13.569-32.76-13.569c-12.374,0-24.008,4.819-32.759,13.569
	l-76.736,76.738c-0.594,0.594-1.167,1.204-1.722,1.822c-0.194,0.216-0.377,0.44-0.566,0.659c-0.351,0.407-0.703,0.814-1.037,1.228
	c-0.053,0.067-0.112,0.129-0.165,0.195c-33.584-12.426-71.085-12.427-104.67,0.003c-0.499-0.625-1.015-1.238-1.547-1.839
	c-0.062-0.07-0.119-0.142-0.181-0.212c-0.567-0.631-1.148-1.252-1.753-1.857l-53.29-53.288
	c33.262-18.4,70.606-28.041,109.099-28.041c0.254,0,0.514,0.005,0.768,0.002c8.329,0,15.095-6.74,15.12-15.075
	c0.027-8.352-6.722-15.143-15.074-15.169c-46.796-0.157-92.23,12.32-132.05,36.146l-1.311-1.313
	c-8.751-8.75-20.384-13.569-32.76-13.569c-12.374,0-24.008,4.819-32.759,13.569L34.837,57.923
	c-8.75,8.751-13.569,20.384-13.569,32.759c0,12.376,4.819,24.009,13.569,32.76l1.311,1.311C12.467,164.326,0,209.438,0,256
	s12.467,91.674,36.148,131.247l-1.311,1.311c-8.75,8.751-13.569,20.384-13.569,32.76c0,12.374,4.819,24.008,13.569,32.759
	l23.088,23.088c8.751,8.75,20.384,13.569,32.759,13.569c12.376,0,24.009-4.819,32.76-13.569l1.311-1.311
	c39.573,23.681,84.683,36.148,131.247,36.148c50.749,0,99.776-14.798,141.787-42.797c3.77-2.513,6.215-6.584,6.661-11.092
	c0.448-4.509-1.152-8.979-4.355-12.184l-66.886-66.888c-1.795-1.793-3.106-3.947-3.9-6.401c-1.347-4.165-4.432-7.541-8.459-9.258
	c-4.025-1.716-8.601-1.604-12.536,0.31c-16.159,7.848-34.247,11.998-52.311,11.998c-14.402,0-28.818-2.646-42.26-7.693
	c0-0.109,0.008-0.218,0.008-0.327c0-12.376-4.819-24.009-13.569-32.76l-23.087-23.087c-8.751-8.751-20.384-13.57-32.76-13.57
	c-0.109,0-0.218,0.008-0.327,0.008c-10.162-27.094-10.162-57.426,0-84.52c0.109,0,0.218,0.008,0.327,0.008
	c12.376,0,24.009-4.819,32.76-13.569l23.087-23.087c8.751-8.751,13.57-20.384,13.57-32.76c0-0.109-0.008-0.218-0.008-0.327
	c27.1-10.163,57.442-10.16,84.542,0.008c-0.082,11.969,4.428,23.965,13.539,33.078l23.088,23.087
	c8.75,8.751,20.383,13.57,32.759,13.57c9.551,0,18.653-2.882,26.336-8.214c0.118-0.082,0.233-0.165,0.351-0.248
	c0.555-0.393,1.102-0.798,1.642-1.217c0.191-0.148,0.381-0.295,0.57-0.445c0.487-0.39,0.963-0.792,1.437-1.204
	c0.184-0.16,0.374-0.318,0.556-0.481c0.635-0.569,1.26-1.154,1.866-1.76l53.294-53.294c37.698,67.987,37.698,150.247,0,218.233
	l-53.296-53.296c-5.213-5.213-11.432-9.011-18.482-11.29c-7.947-2.572-16.474,1.789-19.042,9.736
	c-2.569,7.947,1.789,16.471,9.736,19.04c2.454,0.794,4.609,2.107,6.403,3.901l66.886,66.886c2.85,2.849,6.704,4.429,10.691,4.429
	c0.496,0,0.994-0.024,1.493-0.074c4.508-0.446,8.579-2.891,11.092-6.661c27.998-42.009,42.797-91.039,42.797-141.787
	C512,209.438,499.533,164.326,475.852,124.753z M203.669,396.524c16.672,6.18,34.516,9.407,52.331,9.407s35.659-3.227,52.331-9.407
	c1.083,1.356,2.246,2.658,3.49,3.901l53.287,53.288C331.852,472.11,294.492,481.756,256,481.756
	c-38.493,0-75.852-9.646-109.108-28.042l53.287-53.288c0.588-0.588,1.155-1.193,1.709-1.807c0.163-0.181,0.318-0.369,0.478-0.552
	c0.393-0.451,0.78-0.903,1.154-1.367C203.566,396.641,203.62,396.585,203.669,396.524z M178.792,356.295
	c3.038,3.038,4.712,7.077,4.712,11.373c0,1.582-0.231,3.127-0.67,4.603c-0.044,0.124-0.1,0.242-0.141,0.367
	c-0.383,1.184-0.892,2.294-1.512,3.331c-0.041,0.068-0.08,0.138-0.122,0.204c-0.262,0.423-0.55,0.83-0.851,1.226
	c-0.077,0.1-0.145,0.204-0.225,0.302c-0.37,0.464-0.764,0.913-1.189,1.338l-33.442,33.444l-43.294,43.294
	c-3.038,3.038-7.077,4.712-11.373,4.712c-4.296,0-8.335-1.672-11.373-4.712l-23.088-23.088c-6.271-6.271-6.271-16.475,0-22.746
	l17.46-17.46l59.278-59.277c0.425-0.425,0.874-0.818,1.338-1.189c0.098-0.079,0.201-0.147,0.301-0.224
	c0.398-0.302,0.804-0.591,1.229-0.854c0.067-0.041,0.135-0.08,0.201-0.121c1.037-0.622,2.149-1.131,3.333-1.514
	c0.126-0.041,0.243-0.097,0.367-0.141c1.474-0.439,3.021-0.668,4.603-0.668c4.296,0,8.335,1.672,11.373,4.712L178.792,356.295z
	 M115.477,203.67c-12.426,33.58-12.426,71.081,0,104.661c-0.062,0.05-0.119,0.104-0.181,0.154c-0.463,0.374-0.916,0.762-1.367,1.155
	c-0.181,0.159-0.367,0.31-0.546,0.472c-0.581,0.523-1.151,1.062-1.709,1.617c-0.033,0.032-0.068,0.062-0.1,0.095l-22.309,22.305
	l-30.986,30.986c-37.699-67.985-37.699-150.246,0-218.231l53.294,53.294c0.587,0.588,1.19,1.154,1.803,1.706
	c0.188,0.169,0.383,0.328,0.573,0.494c0.443,0.387,0.891,0.768,1.346,1.137C115.357,203.565,115.415,203.621,115.477,203.67z
	 M178.792,155.705l-23.087,23.087c-3.038,3.038-7.077,4.712-11.373,4.712c-1.582,0-3.127-0.231-4.603-0.67
	c-0.124-0.044-0.242-0.1-0.367-0.141c-1.181-0.383-2.289-0.891-3.325-1.509c-0.071-0.044-0.144-0.085-0.216-0.13
	c-0.419-0.259-0.82-0.544-1.213-0.842c-0.104-0.079-0.213-0.151-0.315-0.234c-0.463-0.37-0.91-0.762-1.335-1.187l-33.441-33.441
	l-43.294-43.294c-6.271-6.271-6.271-16.475,0-22.746L79.31,56.221c3.038-3.038,7.077-4.712,11.373-4.712
	c4.296,0,8.335,1.672,11.373,4.71l17.46,17.46l59.277,59.278c0.425,0.425,0.818,0.874,1.189,1.338
	c0.079,0.098,0.147,0.201,0.222,0.299c0.302,0.399,0.593,0.806,0.856,1.231c0.041,0.065,0.08,0.133,0.119,0.2
	c0.622,1.039,1.131,2.149,1.514,3.334c0.041,0.126,0.097,0.243,0.142,0.367c0.439,1.474,0.668,3.02,0.668,4.602
	C183.504,148.629,181.831,152.669,178.792,155.705z M333.208,155.707c-4.375-4.375-5.687-10.658-3.96-16.19
	c0.018-0.053,0.042-0.101,0.059-0.154c0.191-0.591,0.416-1.163,0.667-1.718c0.021-0.047,0.044-0.094,0.065-0.142
	c0.221-0.476,0.469-0.935,0.733-1.382c0.065-0.109,0.125-0.221,0.194-0.328c0.242-0.39,0.51-0.764,0.785-1.131
	c0.092-0.121,0.174-0.248,0.269-0.367c0.367-0.461,0.758-0.906,1.18-1.326c0.003-0.003,0.006-0.008,0.011-0.011l76.736-76.736
	c3.038-3.038,7.077-4.712,11.373-4.712c4.298,0,8.337,1.672,11.373,4.71l23.084,23.091c3.04,3.038,4.712,7.077,4.712,11.373
	s-1.672,8.335-4.712,11.373l-41,41l-35.736,35.736c-0.425,0.425-0.874,0.818-1.338,1.189c-0.098,0.079-0.201,0.147-0.299,0.222
	c-0.399,0.302-0.806,0.593-1.231,0.856c-0.065,0.041-0.133,0.08-0.2,0.119c-1.039,0.622-2.149,1.131-3.334,1.514
	c-0.13,0.042-0.251,0.1-0.38,0.144c-1.471,0.436-3.012,0.665-4.59,0.665c-4.296,0-8.335-1.672-11.373-4.712L333.208,155.707z"/>
</svg>