<?xml version="1.0" standalone="no"?>
<!DOCTYPE svg PUBLIC "-//W3C//DTD SVG 20010904//EN"
 "http://www.w3.org/TR/2001/REC-SVG-20010904/DTD/svg10.dtd">
<svg version="1.0" xmlns="http://www.w3.org/2000/svg"
 width="300.000000pt" height="173.000000pt" viewBox="0 0 300.000000 173.000000"
 preserveAspectRatio="xMidYMid meet">
<metadata>
Created by potrace 1.10, written by Peter Selinger 2001-2011
</metadata>
<g transform="translate(0.000000,173.000000) scale(0.050000,-0.050000)"
fill="#000000" stroke="none">
<path d="M3218 3228 c-26 -29 -142 -98 -258 -154 l-210 -103 -330 -12 c-364
-13 -413 -25 -483 -123 l-47 -66 0 -630 0 -630 48 -67 c88 -124 83 -123 1136
-123 1310 1 1190 -84 1182 848 l-6 629 -50 53 c-81 87 -118 98 -369 109 l-239
11 -7 80 c-17 187 -36 211 -61 75 -42 -235 -200 -441 -419 -545 -120 -57 -122
-63 -57 -159 175 -256 312 -512 312 -581 0 -231 -360 -417 -606 -313 -292 124
-115 505 217 468 85 -10 89 -8 60 24 -17 19 -31 40 -31 46 0 7 -43 78 -95 159
-52 81 -106 165 -119 187 -13 21 -60 98 -105 170 -138 224 -123 253 219 423
188 93 438 276 378 276 -6 0 -33 -23 -60 -52z m865 -461 c90 -81 47 -1287 -46
-1287 -9 0 -17 297 -17 660 0 363 6 660 13 660 8 0 30 -15 50 -33z m-2001
-210 c0 -868 -4 -1065 -22 -1037 -22 34 -28 1205 -7 1227 25 24 29 -2 29 -190z"/>
<path d="M270 977 c-78 -47 -89 -82 -89 -300 -1 -163 5 -215 27 -223 55 -21
72 33 72 229 0 174 4 198 40 217 82 44 120 -35 120 -250 0 -177 3 -190 40
-190 37 0 40 13 40 190 0 163 6 196 40 230 88 88 140 -3 140 -248 0 -174 6
-196 52 -178 22 8 28 59 28 226 0 306 -7 314 -290 301 -22 -1 -71 3 -110 9
-39 6 -88 0 -110 -13z"/>
<path d="M879 915 c-6 -464 -7 -455 41 -455 38 0 40 13 40 270 0 257 -2 270
-40 270 -34 0 -40 -14 -41 -85z"/>
<path d="M1069 974 c-6 -15 -8 -134 -5 -265 l6 -239 134 0 c266 0 404 238 246
426 -75 89 -355 147 -381 78z m289 -126 c123 -103 43 -288 -124 -288 l-74 0 0
170 0 170 68 0 c45 0 90 -18 130 -52z"/>
<path d="M1609 975 c-33 -85 1 -505 41 -505 58 0 63 515 5 526 -19 4 -40 -5
-46 -21z"/>
<path d="M1790 955 c-31 -124 -1 -485 40 -485 33 0 41 15 46 85 l6 85 96 0
c160 0 254 114 204 246 -43 113 -367 170 -392 69z m286 -79 c64 -64 -21 -165
-130 -152 -50 5 -57 14 -62 91 l-6 85 87 0 c48 0 98 -11 111 -24z"/>
<path d="M2388 962 c-98 -60 -159 -423 -84 -498 34 -34 76 8 76 78 0 58 0 58
130 58 129 0 130 0 130 -56 0 -65 33 -106 72 -90 34 12 40 332 8 415 -43 115
-216 163 -332 93z m199 -83 c39 -31 53 -60 53 -110 l0 -69 -130 0 c-126 0
-130 1 -130 51 0 70 34 128 86 149 62 25 63 25 121 -21z"/>
<path d="M2829 974 c-35 -90 2 -504 45 -510 38 -6 44 4 50 80 9 129 84 132
163 7 57 -91 105 -115 125 -63 6 15 -8 57 -29 93 l-40 65 46 37 c91 71 74 234
-30 288 -73 37 -316 40 -330 3z m307 -98 c66 -66 3 -142 -122 -144 l-84 -2 -6
85 -6 85 97 0 c53 0 108 -11 121 -24z"/>
<path d="M3346 968 c-15 -39 26 -67 99 -68 l55 0 0 -220 c0 -207 2 -220 40
-220 38 0 40 13 40 220 l0 220 55 0 c73 1 114 29 99 68 -19 47 -369 47 -388 0z"/>
<path d="M4165 960 c-290 -177 -76 -604 241 -482 73 28 68 95 -7 85 -139 -19
-185 -10 -232 45 -118 137 20 354 185 291 103 -39 155 33 57 78 -76 34 -171
28 -244 -17z"/>
<path d="M4685 970 c-138 -60 -188 -260 -99 -392 149 -221 494 -117 494 150 0
204 -200 327 -395 242z m204 -81 c179 -85 74 -395 -115 -338 -173 53 -183 293
-14 355 48 17 60 16 129 -17z"/>
<path d="M5233 951 c-51 -48 -85 -453 -41 -496 46 -46 68 18 68 197 0 210 39
292 118 249 54 -29 63 -66 60 -252 -2 -179 7 -214 53 -196 23 9 29 53 29 208
0 179 4 199 43 227 89 63 117 14 117 -205 0 -196 17 -250 72 -229 50 19 39
427 -13 482 -53 57 -132 76 -204 48 -38 -14 -75 -15 -108 -3 -81 31 -138 22
-194 -30z"/>
<path d="M3839 529 c-38 -46 24 -108 70 -70 40 33 40 73 -1 89 -42 16 -39 17
-69 -19z"/>
</g>
</svg>
